<mxfile host="app.diagrams.net" modified="2024-06-11T10:20:19.248Z" agent="Mozilla/5.0 (Windows NT 10.0; Win64; x64) AppleWebKit/537.36 (KHTML, like Gecko) Chrome/125.0.0.0 Safari/537.36" version="24.5.2" etag="-fM4UzZXSPdHv1tmaU4V" type="github">
  <diagram name="Seite-1" id="h9ppPYH-yN-d0XSsdrhD">
    <mxGraphModel>
      <root>
        <mxCell id="0" />
        <mxCell id="1" parent="0" />
      </root>
    </mxGraphModel>
  </diagram>
</mxfile>
